<?xml version="1.0" encoding="utf-8"?>
<!-- Generator: Adobe Illustrator 19.2.1, SVG Export Plug-In . SVG Version: 6.00 Build 0)  -->
<svg version="1.1" id="Layer_1" xmlns="http://www.w3.org/2000/svg" xmlns:xlink="http://www.w3.org/1999/xlink" x="0px" y="0px"
	 viewBox="0 0 480 480" style="enable-background:new 0 0 480 480;" xml:space="preserve">
<style type="text/css">
	.st0{clip-path:url(#SVGID_8_);fill:#A0843D;}
	.st1{fill:#292929;}
	.st2{fill:#B1282A;}
	.st3{fill:#9F2426;}
	.st4{fill:#E0E0D9;}
	.st5{clip-path:url(#SVGID_10_);}
	.st6{fill:#A28E5C;}
	.st7{fill:#57352C;}
	.st8{clip-path:url(#SVGID_12_);fill:#A0843D;}
	.st9{clip-path:url(#SVGID_12_);fill:#A0853F;}
	.st10{clip-path:url(#SVGID_12_);fill:#A08540;}
	.st11{clip-path:url(#SVGID_12_);fill:#A08642;}
	.st12{clip-path:url(#SVGID_12_);fill:#A08644;}
	.st13{clip-path:url(#SVGID_12_);fill:#A18745;}
	.st14{clip-path:url(#SVGID_12_);fill:#A18747;}
	.st15{clip-path:url(#SVGID_12_);fill:#A18848;}
	.st16{clip-path:url(#SVGID_12_);fill:#A18849;}
	.st17{clip-path:url(#SVGID_12_);fill:#A1884B;}
	.st18{clip-path:url(#SVGID_12_);fill:#A1894C;}
	.st19{clip-path:url(#SVGID_12_);fill:#A1894D;}
	.st20{clip-path:url(#SVGID_12_);fill:#A18A4F;}
	.st21{clip-path:url(#SVGID_12_);fill:#A18A50;}
	.st22{clip-path:url(#SVGID_12_);fill:#A18A51;}
	.st23{clip-path:url(#SVGID_12_);fill:#A18B52;}
	.st24{clip-path:url(#SVGID_12_);fill:#A18B53;}
	.st25{clip-path:url(#SVGID_12_);fill:#A18B54;}
	.st26{clip-path:url(#SVGID_12_);fill:#A28C55;}
	.st27{clip-path:url(#SVGID_12_);fill:#A28C56;}
	.st28{clip-path:url(#SVGID_12_);fill:#A28C57;}
	.st29{clip-path:url(#SVGID_12_);fill:#A28D58;}
	.st30{clip-path:url(#SVGID_12_);fill:#A28D59;}
	.st31{clip-path:url(#SVGID_12_);fill:#A28D5A;}
	.st32{clip-path:url(#SVGID_12_);fill:#A28E5B;}
	.st33{clip-path:url(#SVGID_12_);fill:#A28E5C;}
</style>
<g>
	<g>
		<g>
			<g>
				<defs>
					<circle id="SVGID_1_" cx="239.8" cy="241.4" r="238.3"/>
				</defs>
				<clipPath id="SVGID_2_">
					<use xlink:href="#SVGID_1_"  style="overflow:visible;"/>
				</clipPath>
			</g>
		</g>
		<g>
			<defs>
				<circle id="SVGID_3_" cx="241.1" cy="238.5" r="199.4"/>
			</defs>
			<clipPath id="SVGID_4_">
				<use xlink:href="#SVGID_3_"  style="overflow:visible;"/>
			</clipPath>
		</g>
		<g>
			<g>
				<defs>
					<circle id="SVGID_5_" cx="240.3" cy="240.3" r="107.5"/>
				</defs>
				<clipPath id="SVGID_6_">
					<use xlink:href="#SVGID_5_"  style="overflow:visible;"/>
				</clipPath>
			</g>
		</g>
	</g>
	<g>
		<g>
			<g>
				<g>
					<defs>
						<circle id="SVGID_7_" cx="240.7" cy="240.5" r="238.3"/>
					</defs>
					<use xlink:href="#SVGID_7_"  style="overflow:visible;fill:#A0843D;"/>
					<clipPath id="SVGID_8_">
						<use xlink:href="#SVGID_7_"  style="overflow:visible;"/>
					</clipPath>
					<rect x="1.9" y="1.1" class="st0" width="477" height="478"/>
					<circle class="st0" cx="240.7" cy="240.5" r="238.3"/>
					<circle class="st0" cx="240.7" cy="240.5" r="236.3"/>
					<circle class="st0" cx="240.7" cy="240.5" r="234.4"/>
					<circle class="st0" cx="240.7" cy="240.5" r="232.5"/>
					<circle class="st0" cx="240.7" cy="240.5" r="230.6"/>
					<circle class="st0" cx="240.7" cy="240.5" r="228.7"/>
					<circle class="st0" cx="240.7" cy="240.5" r="226.8"/>
					<circle class="st0" cx="240.7" cy="240.5" r="224.9"/>
					<circle class="st0" cx="240.7" cy="240.5" r="223"/>
					<circle class="st0" cx="240.7" cy="240.5" r="221.1"/>
					<circle class="st0" cx="240.7" cy="240.5" r="219.2"/>
					<circle class="st0" cx="240.7" cy="240.5" r="217.3"/>
					<circle class="st0" cx="240.7" cy="240.5" r="215.4"/>
					<circle class="st0" cx="240.7" cy="240.5" r="213.5"/>
				</g>
			</g>
			<g>
				<g>
					<polygon class="st1" points="240.9,243.4 240.9,243.4 240.9,243.4 					"/>
				</g>
				<g>
					<polygon class="st1" points="240.9,243.4 240.9,243.4 240.9,243.4 					"/>
				</g>
				<g>
					<circle class="st1" cx="240.9" cy="243.4" r="0"/>
				</g>
				<g>
					<polygon class="st1" points="240.9,243.4 240.9,243.4 240.9,243.4 					"/>
				</g>
				<g>
					<polygon class="st1" points="240.9,243.4 240.9,243.4 240.9,243.4 240.9,243.4 240.9,243.4 					"/>
				</g>
				<g>
					<circle class="st1" cx="240.9" cy="243.4" r="0"/>
				</g>
				<g>
					<circle class="st1" cx="240.9" cy="243.4" r="0"/>
				</g>
				<g>
					<polygon class="st1" points="240.9,243.4 240.9,243.4 240.9,243.4 240.9,243.4 240.9,243.4 					"/>
				</g>
				<g>
					<polygon class="st1" points="240.9,243.4 240.9,243.4 240.9,243.4 					"/>
				</g>
				<g>
					<polygon class="st1" points="240.9,243.4 240.9,243.4 240.9,243.4 					"/>
				</g>
				<g>
					<polygon class="st1" points="240.9,243.4 240.9,243.4 240.9,243.4 240.9,243.4 240.9,243.4 					"/>
				</g>
				<g>
					<polygon class="st1" points="240.9,243.4 240.9,243.4 240.9,243.4 					"/>
				</g>
				<g>
					<polygon class="st1" points="240.9,243.4 240.9,243.4 240.9,243.4 					"/>
				</g>
				<g>
					<circle class="st1" cx="240.9" cy="243.4" r="0"/>
				</g>
				<g>
					<polygon class="st1" points="240.9,243.4 240.9,243.4 240.9,243.4 					"/>
				</g>
				<g>
					<polygon class="st1" points="240.9,243.4 240.9,243.4 240.9,243.4 					"/>
				</g>
				<g>
					<circle class="st1" cx="240.9" cy="243.4" r="0"/>
				</g>
				<g>
					<polygon class="st1" points="240.9,243.4 240.9,243.4 240.9,243.4 240.9,243.4 240.9,243.4 					"/>
				</g>
				<g>
					<rect x="240.9" y="243.4" class="st1" width="0" height="0"/>
				</g>
				<g>
					<polygon class="st1" points="240.9,243.4 240.9,243.4 240.9,243.4 					"/>
				</g>
				<g>
					<circle class="st1" cx="240.9" cy="243.4" r="0"/>
				</g>
				<g>
					<rect x="240.9" y="243.4" class="st1" width="0" height="0"/>
				</g>
				<g>
					<rect x="240.9" y="243.4" class="st1" width="0" height="0"/>
				</g>
				<g>
					<rect x="240.9" y="243.4" class="st1" width="0" height="0"/>
				</g>
				<g>
					<circle class="st1" cx="240.9" cy="243.4" r="0"/>
				</g>
				<g>
					<polygon class="st1" points="240.9,243.4 240.9,243.4 240.9,243.4 					"/>
				</g>
				<g>
					<polygon class="st1" points="240.9,243.4 240.9,243.4 240.9,243.4 240.9,243.4 240.9,243.4 					"/>
				</g>
				<g>
					<circle class="st1" cx="240.9" cy="243.4" r="0"/>
				</g>
				<g>
					<circle class="st1" cx="240.9" cy="243.4" r="0"/>
				</g>
				<g>
					<circle class="st1" cx="240.9" cy="243.4" r="0"/>
				</g>
				<g>
					<polygon class="st1" points="240.9,243.4 240.9,243.4 240.9,243.4 					"/>
				</g>
				<g>
					<circle class="st1" cx="240.9" cy="243.4" r="0"/>
				</g>
				<g>
					<rect x="240.9" y="243.4" class="st1" width="0" height="0"/>
				</g>
				<g>
					<polygon class="st1" points="240.9,243.4 240.9,243.4 240.9,243.4 					"/>
				</g>
				<g>
					<polygon class="st1" points="240.9,243.4 240.9,243.4 240.9,243.4 					"/>
				</g>
				<g>
					<polygon class="st1" points="240.9,243.4 240.9,243.4 240.9,243.4 					"/>
				</g>
				<g>
					<polygon class="st1" points="240.9,243.4 240.9,243.4 240.9,243.4 					"/>
				</g>
				<g>
					<circle class="st1" cx="240.9" cy="243.4" r="0"/>
				</g>
				<g>
					<circle class="st1" cx="240.9" cy="243.4" r="0"/>
				</g>
				<g>
					<rect x="240.9" y="243.4" class="st1" width="0" height="0"/>
				</g>
				<g>
					<rect x="240.9" y="243.4" class="st1" width="0" height="0"/>
				</g>
				<g>
					<polygon class="st1" points="240.9,243.4 240.9,243.4 240.9,243.4 					"/>
				</g>
				<g>
					<circle class="st1" cx="240.9" cy="243.4" r="0"/>
				</g>
				<g>
					<polygon class="st1" points="240.9,243.4 240.9,243.4 240.9,243.4 					"/>
				</g>
				<g>
					<polygon class="st1" points="240.9,243.4 240.9,243.4 240.9,243.4 240.9,243.4 240.9,243.4 					"/>
				</g>
				<g>
					<circle class="st1" cx="240.9" cy="243.4" r="0"/>
				</g>
				<g>
					<circle class="st1" cx="240.9" cy="243.4" r="0"/>
				</g>
				<g>
					<polygon class="st1" points="240.9,243.4 240.9,243.4 240.9,243.4 					"/>
				</g>
				<g>
					<circle class="st1" cx="240.9" cy="243.4" r="0"/>
				</g>
				<g>
					<circle class="st1" cx="240.9" cy="243.4" r="0"/>
				</g>
				<g>
					<circle class="st1" cx="240.9" cy="243.4" r="0"/>
				</g>
				<g>
					<circle class="st1" cx="240.9" cy="243.4" r="0"/>
				</g>
				<g>
					<circle class="st1" cx="240.9" cy="243.4" r="0"/>
				</g>
				<g>
					<circle class="st1" cx="240.9" cy="243.4" r="0"/>
				</g>
				<g>
					<rect x="240.9" y="243.4" class="st1" width="0" height="0"/>
				</g>
				<g>
					<rect x="240.9" y="243.4" class="st1" width="0" height="0"/>
				</g>
				<g>
					<circle class="st1" cx="240.9" cy="243.4" r="0"/>
				</g>
				<g>
					<rect x="240.9" y="243.4" class="st1" width="0" height="0"/>
				</g>
				<g>
					<circle class="st1" cx="240.9" cy="243.4" r="0"/>
				</g>
				<g>
					<rect x="240.9" y="243.4" class="st1" width="0" height="0"/>
				</g>
				<g>
					<circle class="st1" cx="240.9" cy="243.4" r="0"/>
				</g>
				<g>
					<polygon class="st1" points="240.9,243.4 240.9,243.4 240.9,243.4 240.9,243.4 240.9,243.4 					"/>
				</g>
				<g>
					<circle class="st1" cx="240.9" cy="243.4" r="0"/>
				</g>
				<g>
					<rect x="240.9" y="243.4" class="st1" width="0" height="0"/>
				</g>
				<g>
					<rect x="240.9" y="243.4" class="st1" width="0" height="0"/>
				</g>
				<g>
					<polygon class="st1" points="240.9,243.4 240.9,243.4 240.9,243.4 					"/>
				</g>
				<g>
					<polygon class="st1" points="240.9,243.4 240.9,243.4 240.9,243.4 240.9,243.4 240.9,243.4 					"/>
				</g>
				<g>
					<polygon class="st1" points="240.9,243.4 240.9,243.4 240.9,243.4 					"/>
				</g>
				<g>
					<circle class="st1" cx="240.9" cy="243.4" r="0"/>
				</g>
				<g>
					<polygon class="st1" points="240.9,243.4 240.9,243.4 240.9,243.4 					"/>
				</g>
				<g>
					<polygon class="st1" points="240.9,243.4 240.9,243.4 240.9,243.4 240.9,243.4 240.9,243.4 					"/>
				</g>
				<g>
					<polygon class="st1" points="240.9,243.4 240.9,243.4 240.9,243.4 					"/>
				</g>
				<g>
					<polygon class="st1" points="240.9,243.4 240.9,243.4 240.9,243.4 					"/>
				</g>
				<g>
					<polygon class="st1" points="240.9,243.4 240.9,243.4 240.9,243.4 					"/>
				</g>
				<g>
					<circle class="st1" cx="240.9" cy="243.4" r="0"/>
				</g>
				<g>
					<circle class="st1" cx="240.9" cy="243.4" r="0"/>
				</g>
				<g>
					<polygon class="st1" points="240.9,243.4 240.9,243.4 240.9,243.4 					"/>
				</g>
				<g>
					<polygon class="st1" points="240.9,243.4 240.9,243.4 240.9,243.4 240.9,243.4 240.9,243.4 					"/>
				</g>
				<g>
					<circle class="st1" cx="240.9" cy="243.4" r="0"/>
				</g>
				<g>
					<polygon class="st1" points="240.9,243.4 240.9,243.4 240.9,243.4 					"/>
				</g>
				<g>
					<circle class="st1" cx="240.9" cy="243.4" r="0"/>
				</g>
				<g>
					<circle class="st1" cx="240.9" cy="243.4" r="0"/>
				</g>
				<g>
					<circle class="st1" cx="240.9" cy="243.4" r="0"/>
				</g>
				<g>
					<polygon class="st1" points="240.9,243.4 240.9,243.4 240.9,243.4 					"/>
				</g>
				<g>
					<polygon class="st1" points="240.9,243.4 240.9,243.4 240.9,243.4 					"/>
				</g>
				<g>
					<polygon class="st1" points="240.9,243.4 240.9,243.4 240.9,243.4 					"/>
				</g>
				<g>
					<polygon class="st1" points="240.9,243.4 240.9,243.4 240.9,243.4 					"/>
				</g>
				<g>
					<polygon class="st1" points="240.9,243.4 240.9,243.4 240.9,243.4 					"/>
				</g>
				<g>
					<polygon class="st1" points="240.9,243.4 240.9,243.4 240.9,243.4 					"/>
				</g>
				<g>
					<polygon class="st1" points="240.9,243.4 240.9,243.4 240.9,243.4 					"/>
				</g>
				<g>
					<circle class="st1" cx="240.9" cy="243.4" r="0"/>
				</g>
				<g>
					<polygon class="st1" points="240.9,243.4 240.9,243.4 240.9,243.4 					"/>
				</g>
				<g>
					<polygon class="st1" points="240.9,243.4 240.9,243.4 240.9,243.4 					"/>
				</g>
				<g>
					<polygon class="st1" points="240.9,243.4 240.9,243.4 240.9,243.4 					"/>
				</g>
				<g>
					<circle class="st1" cx="240.9" cy="243.4" r="0"/>
				</g>
				<g>
					<circle class="st1" cx="240.9" cy="243.4" r="0"/>
				</g>
				<g>
					<polygon class="st1" points="240.9,243.4 240.9,243.4 240.9,243.4 					"/>
				</g>
				<g>
					<polygon class="st1" points="240.9,243.4 240.9,243.4 240.9,243.4 					"/>
				</g>
				<g>
					<polygon class="st1" points="240.9,243.4 240.9,243.4 240.9,243.4 					"/>
				</g>
				<g>
					<polygon class="st1" points="240.9,243.4 240.9,243.4 240.9,243.4 					"/>
				</g>
				<g>
					<polygon class="st1" points="240.9,243.4 240.9,243.4 240.9,243.4 					"/>
				</g>
				<g>
					<polygon class="st1" points="240.9,243.4 240.9,243.4 240.9,243.4 					"/>
				</g>
				<g>
					<circle class="st1" cx="240.9" cy="243.4" r="0"/>
				</g>
				<g>
					<circle class="st1" cx="240.9" cy="243.4" r="0"/>
				</g>
				<g>
					<polygon class="st1" points="240.9,243.4 240.9,243.4 240.9,243.4 240.9,243.4 240.9,243.4 					"/>
				</g>
				<g>
					<circle class="st1" cx="240.9" cy="243.4" r="0"/>
				</g>
				<g>
					<polygon class="st1" points="240.9,243.4 240.9,243.4 240.9,243.4 240.9,243.4 240.9,243.4 					"/>
				</g>
				<g>
					<polygon class="st1" points="240.9,243.4 240.9,243.4 240.9,243.4 240.9,243.4 240.9,243.4 					"/>
				</g>
				<g>
					<polygon class="st1" points="240.9,243.4 240.9,243.4 240.9,243.4 					"/>
				</g>
				<g>
					<polygon class="st1" points="240.9,243.4 240.9,243.4 240.9,243.4 					"/>
				</g>
				<g>
					<polygon class="st1" points="240.9,243.4 240.9,243.4 240.9,243.4 					"/>
				</g>
				<g>
					<circle class="st1" cx="240.9" cy="243.4" r="0"/>
				</g>
				<g>
					<circle class="st1" cx="240.9" cy="243.4" r="0"/>
				</g>
				<g>
					<polygon class="st1" points="240.9,243.4 240.9,243.4 240.9,243.4 					"/>
				</g>
				<g>
					<circle class="st1" cx="240.9" cy="243.4" r="0"/>
				</g>
				<g>
					<polygon class="st1" points="240.9,243.4 240.9,243.4 240.9,243.4 					"/>
				</g>
				<g>
					<polygon class="st1" points="240.9,243.4 240.9,243.4 240.9,243.4 					"/>
				</g>
				<g>
					<circle class="st1" cx="240.9" cy="243.4" r="0"/>
				</g>
				<g>
					<circle class="st1" cx="240.9" cy="243.4" r="0"/>
				</g>
				<g>
					<circle class="st1" cx="240.9" cy="243.4" r="0"/>
				</g>
				<g>
					<circle class="st1" cx="240.9" cy="243.4" r="0"/>
				</g>
				<g>
					<circle class="st1" cx="240.9" cy="243.4" r="0"/>
				</g>
				<g>
					<circle class="st1" cx="240.9" cy="243.4" r="0"/>
				</g>
				<g>
					<polygon class="st1" points="240.9,243.4 240.9,243.4 240.9,243.4 					"/>
				</g>
				<g>
					<polygon class="st1" points="240.9,243.4 240.9,243.4 240.9,243.4 					"/>
				</g>
				<g>
					<polygon class="st1" points="240.9,243.4 240.9,243.4 240.9,243.4 					"/>
				</g>
				<g>
					<polygon class="st1" points="240.9,243.4 240.9,243.4 240.9,243.4 240.9,243.4 240.9,243.4 					"/>
				</g>
				<g>
					<circle class="st1" cx="240.9" cy="243.4" r="0"/>
				</g>
				<g>
					<circle class="st1" cx="240.9" cy="243.4" r="0"/>
				</g>
				<g>
					<circle class="st1" cx="240.9" cy="243.4" r="0"/>
				</g>
				<g>
					<circle class="st1" cx="240.9" cy="243.4" r="0"/>
				</g>
				<g>
					<polygon class="st1" points="240.9,243.4 240.9,243.4 240.9,243.4 					"/>
				</g>
				<g>
					<circle class="st1" cx="240.9" cy="243.4" r="0"/>
				</g>
				<g>
					<circle class="st1" cx="240.9" cy="243.4" r="0"/>
				</g>
				<g>
					<polygon class="st1" points="240.9,243.4 240.9,243.4 240.9,243.4 					"/>
				</g>
				<g>
					<path class="st1" d="M336.2,65.4c-7.2-3.9-14.6-7.5-22.3-10.5l-72.8,187.8l0,0.1L336.2,65.4z"/>
				</g>
				<g>
					<path class="st2" d="M241.3,243.2L421.5,157c-3.8-8.3-8.1-16.2-13-23.8L241.3,243.2L241.3,243.2z"/>
				</g>
				<g>
					<polygon class="st1" points="240.9,243.4 240.9,243.4 241.1,242.6 241,242.3 					"/>
				</g>
				<g>
					<path class="st2" d="M241.2,242.9L357,78.6c-6.6-4.8-13.6-9.2-20.8-13.1L241.2,242.9L241.2,242.9z"/>
				</g>
				<g>
					<polygon class="st1" points="241.1,242.7 241.1,242.6 240.9,243.4 					"/>
				</g>
				<g>
					<path class="st1" d="M241.3,243.1l167.2-109.9c-4.9-7.7-10.3-15-16.2-22L241.3,243.1L241.3,243.1z"/>
				</g>
				<g>
					<path class="st1" d="M241.2,243L376,94.2c-6-5.6-12.3-10.8-19-15.6L241.2,243L241.2,243z"/>
				</g>
				<g>
					<path class="st2" d="M241.3,243.1l151-131.8c-5.1-6-10.5-11.7-16.3-17L241.3,243.1L241.3,243.1z"/>
				</g>
				<g>
					<polygon class="st1" points="240.9,243.4 241.2,242.8 241.1,242.7 240.9,243.4 					"/>
				</g>
				<g>
					<path class="st1" d="M192,47.3c-8.9,2.2-17.6,5.1-25.9,8.5l73.9,184L192,47.3z"/>
				</g>
				<g>
					<path class="st2" d="M240.9,243.4L240.9,243.4l-0.9-3.7l-73.9-184c-9.1,3.7-17.8,8-26.1,12.9L240.9,243.4L240.9,243.4z"/>
				</g>
				<g>
					<path class="st1" d="M240.9,243.4L140,68.7c-8,4.7-15.7,10-22.9,15.7L240.9,243.4L240.9,243.4z"/>
				</g>
				<g>
					<path class="st2" d="M240.6,241.4L216.2,42.7c-8.2,1-16.3,2.5-24.2,4.5l47.9,192.5L240.6,241.4z"/>
				</g>
				<g>
					<path class="st2" d="M240.7,242.3l23.7-199.8c-7.7-0.9-15.7-1.4-23.7-1.4c-0.1,0-0.4,0-0.4,0V242L240.7,242.3z"/>
				</g>
				<g>
					<path class="st1" d="M241.1,242.6l50.5-194.9c-8.8-2.3-17.8-4-27-5.1L241,242.3L241.1,242.6z"/>
				</g>
				<g>
					<path class="st1" d="M240.3,242V41.2c-7,0-16.3,0.5-24.3,1.5l24.2,198.7L240.3,242z"/>
				</g>
				<g>
					<path class="st3" d="M240.9,243.4l-123.8-159c-7.2,5.7-13.9,11.9-20.2,18.5L240.9,243.4L240.9,243.4z"/>
				</g>
				<g>
					<path class="st1" d="M241.7,244L397,363.6c5-6.3,9.5-12.9,13.7-19.8l-169.2-100L241.7,244z"/>
				</g>
				<g>
					<polygon class="st1" points="240.9,243.4 242,244.9 241.8,244.3 240.9,243.4 					"/>
				</g>
				<g>
					<polygon class="st1" points="240.9,243.4 240.9,243.4 241.7,244 241.6,243.9 					"/>
				</g>
				<g>
					<polygon class="st1" points="240.9,243.4 242.7,246.6 242,244.9 240.9,243.4 					"/>
				</g>
				<g>
					<polygon class="st1" points="240.9,243.4 240.9,243.4 241.8,244.3 241.7,244 240.9,243.4 					"/>
				</g>
				<g>
					<rect x="240.9" y="243.4" class="st1" width="0" height="0"/>
				</g>
				<g>
					<circle class="st1" cx="240.9" cy="243.4" r="0"/>
				</g>
				<g>
					<circle class="st1" cx="240.9" cy="243.4" r="0"/>
				</g>
				<g>
					<path class="st2" d="M241.6,243.9l169.2,100c4.2-6.8,7.9-13.9,11.2-21.3l-180.5-78.9L241.6,243.9z"/>
				</g>
				<g>
					<path class="st2" d="M241.4,243.4l198,7.4c0.2-3.5,0.3-7,0.3-10.5c0-4.3-0.2-8.6-0.4-12.8L241.4,243.4L241.4,243.4z"/>
				</g>
				<g>
					<path class="st1" d="M241.4,243.4l197.9-15.9c-0.5-8.2-1.5-16.2-3-24.1L241.4,243.4L241.4,243.4z"/>
				</g>
				<g>
					<path class="st1" d="M241.3,243.3l189-63.5c-2.5-7.8-5.4-15.4-8.8-22.8L241.3,243.3L241.3,243.3z"/>
				</g>
				<g>
					<path class="st2" d="M241.4,243.3l194.9-39.9c-1.5-8-3.5-15.9-5.9-23.6L241.4,243.3L241.4,243.3z"/>
				</g>
				<g>
					<path class="st1" d="M241.5,243.5l194.8,34.1c1.7-8.8,2.8-17.7,3.2-26.8L241.5,243.5L241.5,243.5z"/>
				</g>
				<g>
					<path class="st1" d="M241.5,243.7L422,322.6c3.3-7.3,6.2-14.8,8.6-22.6l-189.1-56.4L241.5,243.7z"/>
				</g>
				<g>
					<path class="st2" d="M241.5,243.6L430.6,300c2.3-7.3,4.2-14.8,5.6-22.4L241.5,243.6L241.5,243.6z"/>
				</g>
				<g>
					<path class="st2" d="M240.9,243.4L42.5,259.3c0.8,8.1,2,16.1,3.7,24L240.9,243.4L240.9,243.4z"/>
				</g>
				<g>
					<path class="st2" d="M240.3,243.4L240.3,243.4v196.3c10,0,16.2-0.5,24-1.5L240.3,243.4L240.3,243.4z"/>
				</g>
				<g>
					<path class="st1" d="M217.6,438.5c7.4,0.8,14.7,1.3,22.3,1.3c0.2,0,0.4,0,0.4,0V243.4L217.6,438.5z"/>
				</g>
				<g>
					<path class="st4" d="M240.9,243.4l47.4,190.5c9-2.2,17.8-5.1,26.2-8.4l-71.8-178.9L240.9,243.4z"/>
				</g>
				<g>
					<path class="st1" d="M240.9,243.4l23.9,194.8c8-1,15.8-2.4,23.5-4.3L240.9,243.4L240.9,243.4z"/>
				</g>
				<g>
					<path class="st2" d="M240.9,243.4l-49.3,190.3c8.6,2.1,17.3,3.7,26.3,4.7L240.9,243.4L240.9,243.4z"/>
				</g>
				<g>
					<path class="st1" d="M240.9,243.4L240.9,243.4l-71.1,183.5c7.1,2.7,14.4,5,21.9,6.9L240.9,243.4L240.9,243.4z"/>
				</g>
				<g>
					<path class="st1" d="M240.9,243.4l-144-140.5c-5.4,5.7-10.5,11.7-15.2,18L240.9,243.4L240.9,243.4z"/>
				</g>
				<g>
					<circle class="st1" cx="240.9" cy="243.4" r="0"/>
				</g>
				<g>
					<circle class="st1" cx="240.9" cy="243.4" r="0"/>
				</g>
				<g>
					<path class="st1" d="M314.5,425.5c8.5-3.4,16.7-7.4,24.6-11.9l-96.4-167L314.5,425.5z"/>
				</g>
				<g>
					<path class="st2" d="M241.1,242.6l0.1,0.1L314,54.9c0,0,0,0-0.1,0c-7.3-2.8-14.7-5.3-22.4-7.3L241.1,242.6z"/>
				</g>
				<g>
					<path class="st2" d="M240.9,243.4L240.9,243.4L240.9,243.4l-93,173.5c6.3,3.4,12.9,6.4,19.6,9.1c0.8,0.3,1.5,0.6,2.3,0.9
						L240.9,243.4z"/>
				</g>
				<g>
					<path class="st2" d="M242.7,246.6l96.4,167c7.9-4.5,15.4-9.5,22.5-15L242,244.9L242.7,246.6z"/>
				</g>
				<g>
					<path class="st2" d="M241.7,244l0.1,0.3l140,136.6c5.4-5.5,10.5-11.2,15.3-17.3L241.7,244z"/>
				</g>
				<g>
					<path class="st1" d="M242,244.9l119.6,153.7c7.1-5.4,13.8-11.3,20.1-17.7l-140-136.6L242,244.9z"/>
				</g>
				<g>
					<circle class="st1" cx="240.9" cy="243.4" r="0"/>
				</g>
				<g>
					<path class="st1" d="M49.1,186.2c-2.1,7.4-3.8,15-5,22.8l196.7,34.4L49.1,186.2z"/>
				</g>
				<g>
					<circle class="st1" cx="240.9" cy="243.4" r="0"/>
				</g>
				<g>
					<path class="st2" d="M240.9,243.4L240.9,243.4L44.1,209c-1.4,8.8-2.2,17.9-2.4,27L240.9,243.4L240.9,243.4z"/>
				</g>
				<g>
					<rect x="240.9" y="243.4" class="st1" width="0" height="0"/>
				</g>
				<g>
					<path class="st2" d="M240.9,243.4L57.2,163.2c-3.1,7.5-5.9,15.2-8.1,23.1L240.9,243.4L240.9,243.4z"/>
				</g>
				<g>
					<path class="st1" d="M240.9,243.4L46.1,283.3c1.7,7.9,3.9,15.7,6.6,23.3L240.9,243.4L240.9,243.4z"/>
				</g>
				<g>
					<path class="st3" d="M81.6,120.8c-4.9,6.5-9.4,13.3-13.5,20.4l172.8,102.1L81.6,120.8z"/>
				</g>
				<g>
					<path class="st1" d="M240.9,243.4L240.9,243.4L68.1,141.3c-4,7-7.7,14.3-10.9,21.9L240.9,243.4L240.9,243.4z"/>
				</g>
				<g>
					<path class="st1" d="M240.9,243.4L41.7,236c0,1.5-0.1,3.1-0.1,4.6c0,6.3,0.3,12.6,0.9,18.7L240.9,243.4L240.9,243.4z"/>
				</g>
				<g>
					<path class="st2" d="M108.5,389.6c6,5.3,12.3,10.3,18.9,14.9l113.5-161.1L108.5,389.6z"/>
				</g>
				<g>
					<path class="st1" d="M127.4,404.5c6.6,4.6,13.4,8.7,20.5,12.5l93-173.5v0L127.4,404.5z"/>
				</g>
				<g>
					<rect x="240.9" y="243.4" class="st1" width="0" height="0"/>
				</g>
				<g>
					<path class="st2" d="M240.9,243.4L240.9,243.4L75.6,352c5,7.4,10.6,14.5,16.5,21.2L240.9,243.4L240.9,243.4z"/>
				</g>
				<g>
					<path class="st1" d="M240.9,243.4L62.2,328.9c4,8,8.5,15.8,13.5,23.2L240.9,243.4L240.9,243.4z"/>
				</g>
				<g>
					<path class="st1" d="M240.9,243.4L92.1,373.2c5.1,5.8,10.6,11.2,16.3,16.3L240.9,243.4L240.9,243.4z"/>
				</g>
				<g>
					<path class="st2" d="M52.8,306.6c2.7,7.7,5.8,15.1,9.4,22.3l178.7-85.4L52.8,306.6z"/>
				</g>
				<g>
					<polygon class="st1" points="240.9,243.4 240.9,243.4 240.9,243.4 241.5,243.6 241.5,243.5 240.9,243.4 					"/>
				</g>
				<g>
					<polygon class="st1" points="241.5,243.7 241.5,243.6 240.9,243.4 					"/>
				</g>
				<g>
					<circle class="st1" cx="240.9" cy="243.4" r="0"/>
				</g>
				<g>
					<polygon class="st1" points="240.9,243.4 240.9,243.4 240.9,243.4 240.9,243.4 240.9,243.4 					"/>
				</g>
				<g>
					<polygon class="st1" points="241.5,243.5 241.4,243.4 240.9,243.4 					"/>
				</g>
				<g>
					<polygon class="st1" points="240.9,243.4 240.9,243.4 240.9,243.4 					"/>
				</g>
				<g>
					<polygon class="st1" points="240.9,243.4 240.9,243.4 240.9,243.4 240.9,243.4 240.9,243.4 					"/>
				</g>
				<g>
					<circle class="st1" cx="240.9" cy="243.4" r="0"/>
				</g>
				<g>
					<circle class="st1" cx="240.9" cy="243.4" r="0"/>
				</g>
				<g>
					<polygon class="st1" points="240.9,243.4 241.6,243.9 241.5,243.7 240.9,243.4 					"/>
				</g>
				<g>
					<polygon class="st1" points="241.3,243.2 241.3,243.1 240.9,243.4 					"/>
				</g>
				<g>
					<polygon class="st1" points="240.9,243.4 241.3,243.1 241.3,243.1 240.9,243.4 					"/>
				</g>
				<g>
					<polygon class="st1" points="240.9,243.4 241.3,243.1 241.2,243 240.9,243.4 					"/>
				</g>
				<g>
					<polygon class="st1" points="240.9,243.4 241.4,243.4 241.4,243.3 240.9,243.4 					"/>
				</g>
				<g>
					<polygon class="st1" points="240.9,243.4 240.9,243.4 240.9,243.4 241.3,243.3 241.3,243.2 240.9,243.4 					"/>
				</g>
				<g>
					<polygon class="st1" points="240.9,243.4 241.4,243.4 241.4,243.4 240.9,243.4 					"/>
				</g>
				<g>
					<polygon class="st1" points="240.9,243.4 241.4,243.3 241.3,243.3 240.9,243.4 					"/>
				</g>
				<g>
					<circle class="st1" cx="240.9" cy="243.4" r="0"/>
				</g>
				<g>
					<circle class="st1" cx="240.9" cy="243.4" r="0"/>
				</g>
				<g>
					<polygon class="st1" points="240.9,243.4 240.9,243.4 240.9,243.4 					"/>
				</g>
				<g>
					<polygon class="st1" points="240.9,243.4 240.9,243.4 240.9,243.4 					"/>
				</g>
				<g>
					<rect x="240.9" y="243.4" class="st1" width="0" height="0"/>
				</g>
				<g>
					<polygon class="st1" points="240.9,243.4 240.9,243.4 240.9,243.4 240.9,243.4 240.9,243.4 					"/>
				</g>
				<g>
					<circle class="st1" cx="240.9" cy="243.4" r="0"/>
				</g>
				<g>
					<polygon class="st1" points="240.9,243.4 240.9,243.4 240.9,243.4 240.9,243.4 240.9,243.4 					"/>
				</g>
				<g>
					<polygon class="st1" points="240.9,243.4 240.9,243.4 240.9,243.4 240.9,243.4 240.9,243.4 					"/>
				</g>
				<g>
					<polygon class="st1" points="240.9,243.4 240.9,243.4 240.9,243.4 					"/>
				</g>
				<g>
					<polygon class="st1" points="240.9,243.4 240.9,243.4 240.9,243.4 					"/>
				</g>
				<g>
					<rect x="240.9" y="243.4" class="st1" width="0" height="0"/>
				</g>
				<g>
					<polygon class="st1" points="240.9,243.4 240.9,243.4 240.9,243.4 240.9,243.4 240.9,243.4 					"/>
				</g>
				<g>
					<polygon class="st1" points="240.9,243.4 240.9,243.4 240.9,243.4 					"/>
				</g>
				<g>
					<polygon class="st1" points="240.9,243.4 240.9,243.4 241.2,243 241.2,242.9 240.9,243.4 					"/>
				</g>
				<g>
					<circle class="st1" cx="240.9" cy="243.4" r="0"/>
				</g>
				<g>
					<circle class="st1" cx="240.9" cy="243.4" r="0"/>
				</g>
				<g>
					<polygon class="st1" points="240.9,243.4 240.9,243.4 240.9,243.4 					"/>
				</g>
				<g>
					<polygon class="st1" points="240.9,243.4 240.9,243.4 240.9,243.4 240.9,243.4 240.9,243.4 					"/>
				</g>
				<g>
					<polygon class="st1" points="241.2,242.9 241.2,242.8 240.9,243.4 240.9,243.4 					"/>
				</g>
				<g>
					<circle class="st1" cx="240.9" cy="243.4" r="0"/>
				</g>
				<g>
					<circle class="st1" cx="240.9" cy="243.4" r="0"/>
				</g>
				<g>
					<circle class="st1" cx="240.9" cy="243.4" r="0"/>
				</g>
				<g>
					<polygon class="st1" points="240.9,243.4 240.9,243.4 240.9,243.4 					"/>
				</g>
				<g>
					<circle class="st1" cx="240.9" cy="243.4" r="0"/>
				</g>
				<g>
					<rect x="240.9" y="243.4" class="st1" width="0" height="0"/>
				</g>
				<g>
					<circle class="st1" cx="240.9" cy="243.4" r="0"/>
				</g>
				<g>
					<polygon class="st1" points="240.9,243.4 240.9,243.4 240.9,243.4 240.9,243.4 240.9,243.4 					"/>
				</g>
				<g>
					<circle class="st1" cx="240.9" cy="243.4" r="0"/>
				</g>
				<g>
					<circle class="st1" cx="240.9" cy="243.4" r="0"/>
				</g>
				<g>
					<circle class="st1" cx="240.9" cy="243.4" r="0"/>
				</g>
				<g>
					<rect x="240.9" y="243.4" class="st1" width="0" height="0"/>
				</g>
				<g>
					<circle class="st1" cx="240.9" cy="243.4" r="0"/>
				</g>
				<g>
					<polygon class="st1" points="240.9,243.4 240.9,243.4 240.9,243.4 240.9,243.4 240.9,243.4 					"/>
				</g>
				<g>
					<circle class="st1" cx="240.9" cy="243.4" r="0"/>
				</g>
				<g>
					<rect x="240.9" y="243.4" class="st1" width="0" height="0"/>
				</g>
				<g>
					<polygon class="st1" points="240.6,241.4 239.9,239.8 240.9,243.4 240.9,243.4 					"/>
				</g>
				<g>
					<polygon class="st1" points="240.7,243.2 240.8,243.2 240.8,243.2 240.8,242.2 240.6,242 240.6,243.2 					"/>
				</g>
				<g>
					<polygon class="st1" points="240.3,242 240,241.4 240.3,243.4 					"/>
				</g>
				<g>
					<polygon class="st1" points="240.9,243.4 240.9,243.4 240.9,243.4 					"/>
				</g>
				<g>
					<rect x="240.9" y="243.4" class="st1" width="0" height="0"/>
				</g>
				<g>
					<rect x="240.9" y="243.4" class="st1" width="0" height="0"/>
				</g>
				<g>
					
						<ellipse transform="matrix(0.4472 -0.8944 0.8944 0.4472 -84.5803 349.9828)" class="st1" cx="240.9" cy="243.4" rx="0" ry="0"/>
				</g>
				<g>
					<rect x="240.9" y="243.4" class="st1" width="0" height="0"/>
				</g>
				<g>
					<rect x="240.9" y="243.4" class="st1" width="0" height="0"/>
				</g>
				<g>
					<polygon class="st1" points="240.9,243.4 240.9,243.4 240.9,243.4 					"/>
				</g>
				<g>
					<polygon class="st1" points="240.9,243.4 240.9,243.4 240.9,243.4 					"/>
				</g>
				<g>
					<circle class="st1" cx="240.9" cy="243.4" r="0"/>
				</g>
				<g>
					<circle class="st1" cx="240.9" cy="243.4" r="0"/>
				</g>
				<g>
					<rect x="240.9" y="243.4" class="st1" width="0" height="0"/>
				</g>
			</g>
			<g>
				<defs>
					<circle id="SVGID_9_" cx="240.7" cy="240.5" r="199.4"/>
				</defs>
				<clipPath id="SVGID_10_">
					<use xlink:href="#SVGID_9_"  style="overflow:visible;"/>
				</clipPath>
				<g class="st5">
					<rect x="237.6" y="27" class="st6" width="5" height="432"/>
				</g>
				<g class="st5">
					
						<rect x="238.3" y="27.2" transform="matrix(0.9926 -0.1218 0.1218 0.9926 -27.8347 31.0944)" class="st6" width="4.4" height="432.1"/>
				</g>
				<g class="st5">
					
						<rect x="24.4" y="241.1" transform="matrix(0.2506 -0.9681 0.9681 0.2506 -55.3041 415.0858)" class="st6" width="432.1" height="4.4"/>
				</g>
				<g class="st5">
					
						<rect x="23.6" y="241.1" transform="matrix(0.1201 -0.9928 0.9928 0.1201 -30.561 452.051)" class="st6" width="432.3" height="4.4"/>
				</g>
				<g class="st5">
					
						<rect x="238.3" y="27.2" transform="matrix(0.9704 -0.2415 0.2415 0.9704 -51.6276 65.2683)" class="st6" width="4.4" height="432.1"/>
				</g>
				<g class="st5">
					
						<rect x="240.9" y="31.1" transform="matrix(0.928 -0.3725 0.3725 0.928 -75.0443 108.4297)" class="st6" width="4.4" height="434.8"/>
				</g>
				<g class="st5">
					
						<rect x="238.3" y="27.2" transform="matrix(0.866 -0.5 0.5 0.866 -89.4163 152.8267)" class="st6" width="4.4" height="432.1"/>
				</g>
				<g class="st5">
					
						<rect x="24.4" y="241.1" transform="matrix(0.6712 -0.7412 0.7412 0.6712 -101.2618 258.2196)" class="st6" width="432.1" height="4.4"/>
				</g>
				<g class="st5">
					
						<rect x="24.4" y="241.1" transform="matrix(0.5761 -0.8173 0.8173 0.5761 -96.9087 299.6563)" class="st6" width="432.1" height="4.4"/>
				</g>
				<g class="st5">
					
						<rect x="24.4" y="241.1" transform="matrix(0.8357 -0.5492 0.5492 0.8357 -94.0907 172.0383)" class="st6" width="432.1" height="4.4"/>
				</g>
				<g class="st5">
					
						<rect x="24.4" y="241.1" transform="matrix(0.7533 -0.6576 0.6576 0.7533 -100.6651 218.1429)" class="st6" width="432.1" height="4.4"/>
				</g>
				<g class="st5">
					
						<rect x="24.4" y="241.1" transform="matrix(0.4723 -0.8814 0.8814 0.4723 -87.5276 340.3327)" class="st6" width="432.1" height="4.4"/>
				</g>
				<g class="st5">
					
						<rect x="24.4" y="241.1" transform="matrix(0.3617 -0.9323 0.9323 0.3617 -73.2983 379.4783)" class="st6" width="432.1" height="4.4"/>
				</g>
				<g class="st5">
					
						<rect x="24.4" y="241.1" transform="matrix(0.9968 -7.991990e-02 7.991990e-02 0.9968 -18.6726 19.9965)" class="st6" width="432.1" height="4.4"/>
				</g>
				<g class="st5">
					
						<rect x="24.4" y="241.1" transform="matrix(0.9796 -0.2009 0.2009 0.9796 -43.9639 53.262)" class="st6" width="432.1" height="4.4"/>
				</g>
				<g class="st5">
					
						<rect x="238.3" y="27.2" transform="matrix(0.1725 -0.985 0.985 0.1725 -40.6233 438.1783)" class="st6" width="4.4" height="432.1"/>
				</g>
				<g class="st5">
					
						<rect x="238.3" y="27.2" transform="matrix(3.717834e-02 -0.9993 0.9993 3.717834e-02 -11.5685 474.5254)" class="st6" width="4.4" height="432.1"/>
				</g>
				<g class="st5">
					
						<rect x="24.4" y="241.1" transform="matrix(0.948 -0.3184 0.3184 0.948 -64.9371 89.218)" class="st6" width="432.1" height="4.4"/>
				</g>
				<g class="st5">
					
						<rect x="24.4" y="241.1" transform="matrix(0.9022 -0.4313 0.4313 0.9022 -81.4077 127.5121)" class="st6" width="432.1" height="4.4"/>
				</g>
				<g class="st5">
					
						<rect x="238.3" y="27.2" transform="matrix(0.6099 -0.7925 0.7925 0.6099 -98.9757 285.467)" class="st6" width="4.4" height="432.1"/>
				</g>
				<g class="st5">
					
						<rect x="238.3" y="27.2" transform="matrix(0.5088 -0.8609 0.8609 0.5088 -91.3101 326.49)" class="st6" width="4.4" height="432.1"/>
				</g>
				<g class="st5">
					
						<rect x="238.3" y="27.2" transform="matrix(0.7891 -0.6143 0.6143 0.7891 -98.7183 199.0439)" class="st6" width="4.4" height="432.1"/>
				</g>
				<g class="st5">
					
						<rect x="238.3" y="27.2" transform="matrix(0.6984 -0.7157 0.7157 0.6984 -101.5816 245.4881)" class="st6" width="4.4" height="432.1"/>
				</g>
				<g class="st5">
					
						<rect x="238.3" y="27.2" transform="matrix(0.4005 -0.9163 0.9163 0.4005 -78.7388 366.1888)" class="st6" width="4.4" height="432.1"/>
				</g>
				<g class="st5">
					
						<rect x="238.3" y="27.2" transform="matrix(0.2859 -0.9583 0.9583 0.2859 -61.3937 404.1467)" class="st6" width="4.4" height="432.1"/>
				</g>
				<g class="st5">
					
						<rect x="-229.3" y="585.8" transform="matrix(1.953121e-03 -1 1 1.953121e-03 -614.8672 558.4049)" class="st7" width="403.3" height="2.9"/>
				</g>
			</g>
			<g>
				<g>
					<defs>
						<circle id="SVGID_11_" cx="240.7" cy="240.5" r="107.5"/>
					</defs>
					<clipPath id="SVGID_12_">
						<use xlink:href="#SVGID_11_"  style="overflow:visible;"/>
					</clipPath>
					<rect x="132.4" y="133.2" class="st8" width="216" height="215"/>
					<circle class="st8" cx="240.7" cy="240.5" r="107.5"/>
					<circle class="st9" cx="240.7" cy="240.5" r="107.2"/>
					<circle class="st10" cx="240.7" cy="240.5" r="106.9"/>
					<circle class="st11" cx="240.7" cy="240.5" r="106.6"/>
					<circle class="st12" cx="240.7" cy="240.5" r="106.3"/>
					<circle class="st13" cx="240.7" cy="240.5" r="106.1"/>
					<circle class="st14" cx="240.7" cy="240.5" r="105.8"/>
					<circle class="st15" cx="240.7" cy="240.5" r="105.5"/>
					<circle class="st16" cx="240.7" cy="240.5" r="105.2"/>
					<circle class="st17" cx="240.7" cy="240.5" r="104.9"/>
					<circle class="st18" cx="240.7" cy="240.5" r="104.6"/>
					<circle class="st19" cx="240.7" cy="240.5" r="104.3"/>
					<circle class="st20" cx="240.7" cy="240.5" r="104"/>
					<circle class="st21" cx="240.7" cy="240.5" r="103.7"/>
					<circle class="st22" cx="240.7" cy="240.5" r="103.4"/>
					<circle class="st23" cx="240.7" cy="240.5" r="103.1"/>
					<circle class="st24" cx="240.7" cy="240.5" r="102.8"/>
					<circle class="st25" cx="240.7" cy="240.5" r="102.5"/>
					<circle class="st26" cx="240.7" cy="240.5" r="102.2"/>
					<circle class="st27" cx="240.7" cy="240.5" r="101.9"/>
					<circle class="st28" cx="240.7" cy="240.5" r="101.6"/>
					<circle class="st29" cx="240.7" cy="240.5" r="101.3"/>
					<circle class="st29" cx="240.7" cy="240.5" r="101.1"/>
					<circle class="st30" cx="240.7" cy="240.5" r="100.8"/>
					<circle class="st31" cx="240.7" cy="240.5" r="100.5"/>
					<circle class="st31" cx="240.7" cy="240.5" r="100.2"/>
					<circle class="st32" cx="240.7" cy="240.5" r="99.9"/>
					<circle class="st32" cx="240.7" cy="240.5" r="99.6"/>
					<circle class="st33" cx="240.7" cy="240.5" r="99.3"/>
					<circle class="st33" cx="240.7" cy="240.5" r="99"/>
					<circle class="st33" cx="240.7" cy="240.5" r="98.7"/>
				</g>
			</g>
		</g>
		<g>
			<path class="st6" d="M239.8,394.1c-84.2,0-152.8-68.5-152.8-152.8c0-84.2,68.5-152.8,152.8-152.8c84.2,0,152.8,68.5,152.8,152.8
				C392.6,325.6,324.1,394.1,239.8,394.1z M239.8,91.5C157.2,91.5,90,158.7,90,241.4s67.2,149.8,149.8,149.8
				c82.6,0,149.8-67.2,149.8-149.8S322.5,91.5,239.8,91.5z"/>
		</g>
	</g>
	<g>
		<g>
			<g>
				<defs>
					<circle id="SVGID_13_" cx="239.8" cy="241.4" r="238.3"/>
				</defs>
				<clipPath id="SVGID_14_">
					<use xlink:href="#SVGID_13_"  style="overflow:visible;"/>
				</clipPath>
			</g>
		</g>
		<g>
			<defs>
				<circle id="SVGID_15_" cx="241.1" cy="238.5" r="199.4"/>
			</defs>
			<clipPath id="SVGID_16_">
				<use xlink:href="#SVGID_15_"  style="overflow:visible;"/>
			</clipPath>
		</g>
		<g>
			<g>
				<defs>
					<circle id="SVGID_17_" cx="240.3" cy="240.3" r="107.5"/>
				</defs>
				<clipPath id="SVGID_18_">
					<use xlink:href="#SVGID_17_"  style="overflow:visible;"/>
				</clipPath>
			</g>
		</g>
	</g>
</g>
</svg>
